<mxfile host="65bd71144e">
    <diagram id="4S5U35uYTF4GXJ3WIXvR" name="Page-1">
        <mxGraphModel dx="641" dy="553" grid="1" gridSize="10" guides="1" tooltips="1" connect="1" arrows="1" fold="1" page="1" pageScale="1" pageWidth="827" pageHeight="1169" math="0" shadow="0">
            <root>
                <mxCell id="0"/>
                <mxCell id="1" parent="0"/>
                <mxCell id="2" value="" style="swimlane;startSize=0;strokeColor=#F0F0F0;strokeWidth=5;" vertex="1" parent="1">
                    <mxGeometry x="80" y="20" width="320" height="820" as="geometry"/>
                </mxCell>
                <mxCell id="3" value="Telefono(Whatsapp)" style="html=1;shadow=0;dashed=0;shape=mxgraph.bootstrap.rrect;rSize=5;strokeColor=#CED4DA;strokeWidth=1;fillColor=#E9ECEF;fontColor=#505050;whiteSpace=wrap;align=left;verticalAlign=middle;spacingLeft=10;fontSize=14;" vertex="1" parent="2">
                    <mxGeometry x="25" y="30" width="270" height="40" as="geometry"/>
                </mxCell>
                <mxCell id="4" value="Ciudad" style="html=1;shadow=0;dashed=0;shape=mxgraph.bootstrap.rrect;rSize=5;strokeColor=#CED4DA;strokeWidth=1;fillColor=#E9ECEF;fontColor=#505050;whiteSpace=wrap;align=left;verticalAlign=middle;spacingLeft=10;fontSize=14;" vertex="1" parent="2">
                    <mxGeometry x="25" y="180" width="270" height="40" as="geometry"/>
                </mxCell>
                <mxCell id="5" value="" style="shape=sortShape;perimeter=rhombusPerimeter;whiteSpace=wrap;html=1;strokeColor=#F0F0F0;strokeWidth=5;" vertex="1" parent="2">
                    <mxGeometry x="260" y="190" width="30" height="20" as="geometry"/>
                </mxCell>
                <mxCell id="6" value="Buenos Aires" style="html=1;shadow=0;dashed=0;shape=mxgraph.bootstrap.rrect;rSize=5;strokeColor=#CED4DA;strokeWidth=1;fillColor=#E9ECEF;fontColor=#505050;whiteSpace=wrap;align=left;verticalAlign=middle;spacingLeft=10;fontSize=14;" vertex="1" parent="2">
                    <mxGeometry x="25" y="130" width="270" height="40" as="geometry"/>
                </mxCell>
                <mxCell id="7" value="Cantidad Solicitada a Mano" style="html=1;shadow=0;dashed=0;shape=mxgraph.bootstrap.rrect;rSize=5;strokeColor=#CED4DA;strokeWidth=1;fillColor=#E9ECEF;fontColor=#505050;whiteSpace=wrap;align=left;verticalAlign=middle;spacingLeft=10;fontSize=14;" vertex="1" parent="2">
                    <mxGeometry x="25" y="460" width="270" height="40" as="geometry"/>
                </mxCell>
                <mxCell id="8" value="Direccion" style="html=1;shadow=0;dashed=0;shape=mxgraph.bootstrap.rrect;rSize=5;strokeColor=#CED4DA;strokeWidth=1;fillColor=#E9ECEF;fontColor=#505050;whiteSpace=wrap;align=left;verticalAlign=middle;spacingLeft=10;fontSize=14;" vertex="1" parent="2">
                    <mxGeometry x="25" y="235" width="270" height="40" as="geometry"/>
                </mxCell>
                <mxCell id="9" value="Numero" style="html=1;shadow=0;dashed=0;shape=mxgraph.bootstrap.rrect;rSize=5;strokeColor=#CED4DA;strokeWidth=1;fillColor=#E9ECEF;fontColor=#505050;whiteSpace=wrap;align=left;verticalAlign=middle;spacingLeft=10;fontSize=14;" vertex="1" parent="2">
                    <mxGeometry x="25" y="285" width="270" height="40" as="geometry"/>
                </mxCell>
                <mxCell id="10" value="Referencia" style="html=1;shadow=0;dashed=0;shape=mxgraph.bootstrap.rrect;rSize=5;strokeColor=#CED4DA;strokeWidth=1;fillColor=#E9ECEF;fontColor=#505050;whiteSpace=wrap;align=left;verticalAlign=middle;spacingLeft=10;fontSize=14;" vertex="1" parent="2">
                    <mxGeometry x="25" y="335" width="270" height="40" as="geometry"/>
                </mxCell>
                <mxCell id="11" value="Nombre" style="html=1;shadow=0;dashed=0;shape=mxgraph.bootstrap.rrect;rSize=5;strokeColor=#CED4DA;strokeWidth=1;fillColor=#E9ECEF;fontColor=#505050;whiteSpace=wrap;align=left;verticalAlign=middle;spacingLeft=10;fontSize=14;" vertex="1" parent="2">
                    <mxGeometry x="25" y="80" width="270" height="40" as="geometry"/>
                </mxCell>
                <mxCell id="12" value="Billetera Virtual" style="html=1;shadow=0;dashed=0;shape=mxgraph.bootstrap.rrect;rSize=5;strokeColor=#CED4DA;strokeWidth=1;fillColor=#E9ECEF;fontColor=#505050;whiteSpace=wrap;align=left;verticalAlign=middle;spacingLeft=10;fontSize=14;" vertex="1" parent="2">
                    <mxGeometry x="25" y="410" width="270" height="40" as="geometry"/>
                </mxCell>
                <mxCell id="13" value="" style="shape=sortShape;perimeter=rhombusPerimeter;whiteSpace=wrap;html=1;strokeColor=#F0F0F0;strokeWidth=5;" vertex="1" parent="2">
                    <mxGeometry x="260" y="420" width="30" height="20" as="geometry"/>
                </mxCell>
                <mxCell id="14" value="Total:&amp;nbsp;" style="text;html=1;strokeColor=none;fillColor=none;align=center;verticalAlign=middle;whiteSpace=wrap;rounded=0;" vertex="1" parent="2">
                    <mxGeometry x="100" y="620" width="60" height="30" as="geometry"/>
                </mxCell>
                <mxCell id="15" value="" style="shape=link;html=1;strokeWidth=2;" edge="1" parent="2">
                    <mxGeometry width="100" relative="1" as="geometry">
                        <mxPoint x="30" y="610" as="sourcePoint"/>
                        <mxPoint x="290" y="610" as="targetPoint"/>
                    </mxGeometry>
                </mxCell>
                <mxCell id="16" value="Cantidad Solicitada" style="text;html=1;strokeColor=none;fillColor=none;align=center;verticalAlign=middle;whiteSpace=wrap;rounded=0;" vertex="1" parent="2">
                    <mxGeometry x="100" y="535" width="60" height="30" as="geometry"/>
                </mxCell>
                <mxCell id="17" value="Costo Servicio" style="text;html=1;strokeColor=none;fillColor=none;align=center;verticalAlign=middle;whiteSpace=wrap;rounded=0;" vertex="1" parent="2">
                    <mxGeometry x="100" y="570" width="60" height="30" as="geometry"/>
                </mxCell>
                <mxCell id="19" style="edgeStyle=none;html=1;entryX=1.019;entryY=0.5;entryDx=0;entryDy=0;entryPerimeter=0;fontSize=18;strokeWidth=2;" edge="1" parent="2" source="18" target="4">
                    <mxGeometry relative="1" as="geometry">
                        <Array as="points">
                            <mxPoint x="500" y="585"/>
                            <mxPoint x="500" y="200"/>
                        </Array>
                    </mxGeometry>
                </mxCell>
                <mxCell id="18" value="&lt;font style=&quot;font-size: 18px&quot;&gt;&lt;b&gt;$ 500&lt;/b&gt;&lt;/font&gt;" style="text;html=1;strokeColor=none;fillColor=none;align=center;verticalAlign=middle;whiteSpace=wrap;rounded=0;" vertex="1" parent="2">
                    <mxGeometry x="190" y="570" width="60" height="30" as="geometry"/>
                </mxCell>
                <mxCell id="21" style="edgeStyle=none;html=1;entryX=0.996;entryY=0.55;entryDx=0;entryDy=0;entryPerimeter=0;fontSize=18;strokeWidth=2;" edge="1" parent="2" source="20" target="7">
                    <mxGeometry relative="1" as="geometry">
                        <Array as="points">
                            <mxPoint x="400" y="550"/>
                            <mxPoint x="400" y="482"/>
                        </Array>
                    </mxGeometry>
                </mxCell>
                <mxCell id="20" value="$" style="text;html=1;strokeColor=none;fillColor=none;align=center;verticalAlign=middle;whiteSpace=wrap;rounded=0;fontSize=18;" vertex="1" parent="2">
                    <mxGeometry x="190" y="535" width="60" height="30" as="geometry"/>
                </mxCell>
                <mxCell id="22" value="El envio de dinero puede tardar de 3 a 6 horas despues de la solicitud" style="text;html=1;strokeColor=none;fillColor=none;align=center;verticalAlign=middle;whiteSpace=wrap;rounded=0;fontSize=18;" vertex="1" parent="2">
                    <mxGeometry x="20" y="680" width="270" height="30" as="geometry"/>
                </mxCell>
                <mxCell id="23" value="Solicitar" style="rounded=1;fillColor=#008a00;align=center;strokeColor=#005700;html=1;fontColor=#ffffff;fontSize=12;sketch=0;" vertex="1" parent="2">
                    <mxGeometry x="115" y="760" width="86" height="33" as="geometry"/>
                </mxCell>
                <mxCell id="25" value="" style="swimlane;startSize=0;strokeColor=#F0F0F0;strokeWidth=5;" vertex="1" parent="1">
                    <mxGeometry x="640" y="20" width="680" height="820" as="geometry"/>
                </mxCell>
                <mxCell id="41" style="edgeStyle=none;html=1;entryX=1.019;entryY=0.5;entryDx=0;entryDy=0;entryPerimeter=0;fontSize=18;strokeWidth=2;" edge="1" parent="25" source="42">
                    <mxGeometry relative="1" as="geometry">
                        <Array as="points">
                            <mxPoint x="500" y="585"/>
                            <mxPoint x="500" y="200"/>
                        </Array>
                        <mxPoint x="300.1300000000001" y="200" as="targetPoint"/>
                    </mxGeometry>
                </mxCell>
                <mxCell id="43" style="edgeStyle=none;html=1;entryX=0.996;entryY=0.55;entryDx=0;entryDy=0;entryPerimeter=0;fontSize=18;strokeWidth=2;" edge="1" parent="25" source="44">
                    <mxGeometry relative="1" as="geometry">
                        <Array as="points">
                            <mxPoint x="400" y="550"/>
                            <mxPoint x="400" y="482"/>
                        </Array>
                        <mxPoint x="293.9200000000001" y="482" as="targetPoint"/>
                    </mxGeometry>
                </mxCell>
                <mxCell id="48" value="Confirmar" style="rounded=1;fillColor=#008a00;align=center;strokeColor=#005700;html=1;fontColor=#ffffff;fontSize=12;sketch=0;" vertex="1" parent="25">
                    <mxGeometry x="280" y="760" width="86" height="33" as="geometry"/>
                </mxCell>
            </root>
        </mxGraphModel>
    </diagram>
</mxfile>